<?xml version="1.0" encoding="UTF-8" standalone="no"?>
<!DOCTYPE svg PUBLIC "-//W3C//DTD SVG 1.1//EN" "http://www.w3.org/Graphics/SVG/1.1/DTD/svg11.dtd">
<svg width="100%" height="100%" viewBox="0 0 48 48" version="1.1" xmlns="http://www.w3.org/2000/svg" xmlns:xlink="http://www.w3.org/1999/xlink" xml:space="preserve" xmlns:serif="http://www.serif.com/" style="fill-rule:evenodd;clip-rule:evenodd;stroke-linejoin:round;stroke-miterlimit:2;">
    <g transform="matrix(1.26316,0,0,1.26316,-6.31579,-6.31579)">
        <path d="M24,5C13.577,5 5,13.577 5,24C5,34.423 13.577,43 24,43C34.423,43 43,34.423 43,24C43,13.577 34.423,5 24,5Z" style="fill:rgb(3,155,229);fill-rule:nonzero;"/>
    </g>
    <g transform="matrix(1.26316,0,0,1.26316,-6.31579,-6.31579)">
        <path d="M26.572,29.036L31.489,29.036L32.261,24.041L26.571,24.041L26.571,21.311C26.571,19.236 27.249,17.396 29.19,17.396L32.309,17.396L32.309,13.037C31.761,12.963 30.602,12.801 28.412,12.801C23.839,12.801 21.158,15.216 21.158,20.718L21.158,24.041L16.457,24.041L16.457,29.036L21.158,29.036L21.158,42.765C22.089,42.905 23.032,43 24,43C24.875,43 25.729,42.92 26.572,42.806L26.572,29.036Z" style="fill:white;fill-rule:nonzero;"/>
    </g>
</svg>
