<?xml version="1.0" encoding="UTF-8" standalone="no"?>
<!DOCTYPE svg PUBLIC "-//W3C//DTD SVG 1.1//EN" "http://www.w3.org/Graphics/SVG/1.1/DTD/svg11.dtd">
<svg width="100%" height="100%" viewBox="0 0 900 500" version="1.1" xmlns="http://www.w3.org/2000/svg" xmlns:xlink="http://www.w3.org/1999/xlink" xml:space="preserve" xmlns:serif="http://www.serif.com/" style="fill-rule:evenodd;clip-rule:evenodd;stroke-linejoin:round;stroke-miterlimit:2;">
    <g transform="matrix(1,0,0,1,-50,0)">
        <rect x="0" y="0" width="1000" height="500" style="fill:rgb(30,181,58);fill-rule:nonzero;"/>
    </g>
    <g transform="matrix(1,0,0,1,-50,0)">
        <rect x="0" y="0" width="1000" height="250" style="fill:rgb(0,153,181);fill-rule:nonzero;"/>
    </g>
    <g transform="matrix(1,0,0,1,-50,0)">
        <rect x="0" y="160" width="1000" height="180" style="fill:rgb(206,17,38);fill-rule:nonzero;"/>
    </g>
    <g transform="matrix(1,0,0,1,-50,0)">
        <rect x="0" y="170" width="1000" height="160" style="fill:white;fill-rule:nonzero;"/>
    </g>
    <g transform="matrix(1,0,0,1,3.14684,0)">
        <circle cx="140" cy="80" r="60" style="fill:white;"/>
    </g>
    <g transform="matrix(1,0,0,1,3.14684,0)">
        <circle cx="160" cy="80" r="60" style="fill:rgb(0,153,181);"/>
    </g>
    <g transform="matrix(2,0,0,2,275.147,128)">
        <g id="e">
            <g id="d">
                <g id="c">
                    <g id="b">
                        <g id="a" transform="matrix(0.951057,0.309017,-0.309017,0.951057,-1.8541,-0.293661)">
                            <path d="M0,-6L0,0L3,0" style="fill:white;fill-rule:nonzero;"/>
                        </g>
                        <g id="a1" serif:id="a" transform="matrix(-0.951057,0.309017,0.309017,0.951057,1.8541,-0.293661)">
                            <path d="M0,-6L0,0L3,0" style="fill:white;fill-rule:nonzero;"/>
                        </g>
                    </g>
                    <g id="b1" serif:id="b" transform="matrix(0.309017,0.951057,-0.951057,0.309017,0,0)">
                        <g id="a2" serif:id="a" transform="matrix(0.951057,0.309017,-0.309017,0.951057,-1.8541,-0.293661)">
                            <path d="M0,-6L0,0L3,0" style="fill:white;fill-rule:nonzero;"/>
                        </g>
                        <g id="a3" serif:id="a" transform="matrix(-0.951057,0.309017,0.309017,0.951057,1.8541,-0.293661)">
                            <path d="M0,-6L0,0L3,0" style="fill:white;fill-rule:nonzero;"/>
                        </g>
                    </g>
                </g>
                <g id="b2" serif:id="b" transform="matrix(0.309017,-0.951057,0.951057,0.309017,0,0)">
                    <g id="a4" serif:id="a" transform="matrix(0.951057,0.309017,-0.309017,0.951057,-1.8541,-0.293661)">
                        <path d="M0,-6L0,0L3,0" style="fill:white;fill-rule:nonzero;"/>
                    </g>
                    <g id="a5" serif:id="a" transform="matrix(-0.951057,0.309017,0.309017,0.951057,1.8541,-0.293661)">
                        <path d="M0,-6L0,0L3,0" style="fill:white;fill-rule:nonzero;"/>
                    </g>
                </g>
                <g id="c1" serif:id="c" transform="matrix(-0.809017,0.587785,-0.587785,-0.809017,0,0)">
                    <g id="b3" serif:id="b">
                        <g id="a6" serif:id="a" transform="matrix(0.951057,0.309017,-0.309017,0.951057,-1.8541,-0.293661)">
                            <path d="M0,-6L0,0L3,0" style="fill:white;fill-rule:nonzero;"/>
                        </g>
                        <g id="a7" serif:id="a" transform="matrix(-0.951057,0.309017,0.309017,0.951057,1.8541,-0.293661)">
                            <path d="M0,-6L0,0L3,0" style="fill:white;fill-rule:nonzero;"/>
                        </g>
                    </g>
                    <g id="b4" serif:id="b" transform="matrix(0.309017,0.951057,-0.951057,0.309017,0,0)">
                        <g id="a8" serif:id="a" transform="matrix(0.951057,0.309017,-0.309017,0.951057,-1.8541,-0.293661)">
                            <path d="M0,-6L0,0L3,0" style="fill:white;fill-rule:nonzero;"/>
                        </g>
                        <g id="a9" serif:id="a" transform="matrix(-0.951057,0.309017,0.309017,0.951057,1.8541,-0.293661)">
                            <path d="M0,-6L0,0L3,0" style="fill:white;fill-rule:nonzero;"/>
                        </g>
                    </g>
                </g>
            </g>
            <g id="d1" serif:id="d" transform="matrix(1,0,0,1,0,-24)">
                <g id="c2" serif:id="c">
                    <g id="b5" serif:id="b">
                        <g id="a10" serif:id="a" transform="matrix(0.951057,0.309017,-0.309017,0.951057,-1.8541,-0.293661)">
                            <path d="M0,-6L0,0L3,0" style="fill:white;fill-rule:nonzero;"/>
                        </g>
                        <g id="a11" serif:id="a" transform="matrix(-0.951057,0.309017,0.309017,0.951057,1.8541,-0.293661)">
                            <path d="M0,-6L0,0L3,0" style="fill:white;fill-rule:nonzero;"/>
                        </g>
                    </g>
                    <g id="b6" serif:id="b" transform="matrix(0.309017,0.951057,-0.951057,0.309017,0,0)">
                        <g id="a12" serif:id="a" transform="matrix(0.951057,0.309017,-0.309017,0.951057,-1.8541,-0.293661)">
                            <path d="M0,-6L0,0L3,0" style="fill:white;fill-rule:nonzero;"/>
                        </g>
                        <g id="a13" serif:id="a" transform="matrix(-0.951057,0.309017,0.309017,0.951057,1.8541,-0.293661)">
                            <path d="M0,-6L0,0L3,0" style="fill:white;fill-rule:nonzero;"/>
                        </g>
                    </g>
                </g>
                <g id="b7" serif:id="b" transform="matrix(0.309017,-0.951057,0.951057,0.309017,0,0)">
                    <g id="a14" serif:id="a" transform="matrix(0.951057,0.309017,-0.309017,0.951057,-1.8541,-0.293661)">
                        <path d="M0,-6L0,0L3,0" style="fill:white;fill-rule:nonzero;"/>
                    </g>
                    <g id="a15" serif:id="a" transform="matrix(-0.951057,0.309017,0.309017,0.951057,1.8541,-0.293661)">
                        <path d="M0,-6L0,0L3,0" style="fill:white;fill-rule:nonzero;"/>
                    </g>
                </g>
                <g id="c3" serif:id="c" transform="matrix(-0.809017,0.587785,-0.587785,-0.809017,0,0)">
                    <g id="b8" serif:id="b">
                        <g id="a16" serif:id="a" transform="matrix(0.951057,0.309017,-0.309017,0.951057,-1.8541,-0.293661)">
                            <path d="M0,-6L0,0L3,0" style="fill:white;fill-rule:nonzero;"/>
                        </g>
                        <g id="a17" serif:id="a" transform="matrix(-0.951057,0.309017,0.309017,0.951057,1.8541,-0.293661)">
                            <path d="M0,-6L0,0L3,0" style="fill:white;fill-rule:nonzero;"/>
                        </g>
                    </g>
                    <g id="b9" serif:id="b" transform="matrix(0.309017,0.951057,-0.951057,0.309017,0,0)">
                        <g id="a18" serif:id="a" transform="matrix(0.951057,0.309017,-0.309017,0.951057,-1.8541,-0.293661)">
                            <path d="M0,-6L0,0L3,0" style="fill:white;fill-rule:nonzero;"/>
                        </g>
                        <g id="a19" serif:id="a" transform="matrix(-0.951057,0.309017,0.309017,0.951057,1.8541,-0.293661)">
                            <path d="M0,-6L0,0L3,0" style="fill:white;fill-rule:nonzero;"/>
                        </g>
                    </g>
                </g>
            </g>
            <g id="d2" serif:id="d" transform="matrix(1,0,0,1,0,-48)">
                <g id="c4" serif:id="c">
                    <g id="b10" serif:id="b">
                        <g id="a20" serif:id="a" transform="matrix(0.951057,0.309017,-0.309017,0.951057,-1.8541,-0.293661)">
                            <path d="M0,-6L0,0L3,0" style="fill:white;fill-rule:nonzero;"/>
                        </g>
                        <g id="a21" serif:id="a" transform="matrix(-0.951057,0.309017,0.309017,0.951057,1.8541,-0.293661)">
                            <path d="M0,-6L0,0L3,0" style="fill:white;fill-rule:nonzero;"/>
                        </g>
                    </g>
                    <g id="b11" serif:id="b" transform="matrix(0.309017,0.951057,-0.951057,0.309017,0,0)">
                        <g id="a22" serif:id="a" transform="matrix(0.951057,0.309017,-0.309017,0.951057,-1.8541,-0.293661)">
                            <path d="M0,-6L0,0L3,0" style="fill:white;fill-rule:nonzero;"/>
                        </g>
                        <g id="a23" serif:id="a" transform="matrix(-0.951057,0.309017,0.309017,0.951057,1.8541,-0.293661)">
                            <path d="M0,-6L0,0L3,0" style="fill:white;fill-rule:nonzero;"/>
                        </g>
                    </g>
                </g>
                <g id="b12" serif:id="b" transform="matrix(0.309017,-0.951057,0.951057,0.309017,0,0)">
                    <g id="a24" serif:id="a" transform="matrix(0.951057,0.309017,-0.309017,0.951057,-1.8541,-0.293661)">
                        <path d="M0,-6L0,0L3,0" style="fill:white;fill-rule:nonzero;"/>
                    </g>
                    <g id="a25" serif:id="a" transform="matrix(-0.951057,0.309017,0.309017,0.951057,1.8541,-0.293661)">
                        <path d="M0,-6L0,0L3,0" style="fill:white;fill-rule:nonzero;"/>
                    </g>
                </g>
                <g id="c5" serif:id="c" transform="matrix(-0.809017,0.587785,-0.587785,-0.809017,0,0)">
                    <g id="b13" serif:id="b">
                        <g id="a26" serif:id="a" transform="matrix(0.951057,0.309017,-0.309017,0.951057,-1.8541,-0.293661)">
                            <path d="M0,-6L0,0L3,0" style="fill:white;fill-rule:nonzero;"/>
                        </g>
                        <g id="a27" serif:id="a" transform="matrix(-0.951057,0.309017,0.309017,0.951057,1.8541,-0.293661)">
                            <path d="M0,-6L0,0L3,0" style="fill:white;fill-rule:nonzero;"/>
                        </g>
                    </g>
                    <g id="b14" serif:id="b" transform="matrix(0.309017,0.951057,-0.951057,0.309017,0,0)">
                        <g id="a28" serif:id="a" transform="matrix(0.951057,0.309017,-0.309017,0.951057,-1.8541,-0.293661)">
                            <path d="M0,-6L0,0L3,0" style="fill:white;fill-rule:nonzero;"/>
                        </g>
                        <g id="a29" serif:id="a" transform="matrix(-0.951057,0.309017,0.309017,0.951057,1.8541,-0.293661)">
                            <path d="M0,-6L0,0L3,0" style="fill:white;fill-rule:nonzero;"/>
                        </g>
                    </g>
                </g>
            </g>
        </g>
        <g id="e1" serif:id="e" transform="matrix(1,0,0,1,24,0)">
            <g id="d3" serif:id="d">
                <g id="c6" serif:id="c">
                    <g id="b15" serif:id="b">
                        <g id="a30" serif:id="a" transform="matrix(0.951057,0.309017,-0.309017,0.951057,-1.8541,-0.293661)">
                            <path d="M0,-6L0,0L3,0" style="fill:white;fill-rule:nonzero;"/>
                        </g>
                        <g id="a31" serif:id="a" transform="matrix(-0.951057,0.309017,0.309017,0.951057,1.8541,-0.293661)">
                            <path d="M0,-6L0,0L3,0" style="fill:white;fill-rule:nonzero;"/>
                        </g>
                    </g>
                    <g id="b16" serif:id="b" transform="matrix(0.309017,0.951057,-0.951057,0.309017,0,0)">
                        <g id="a32" serif:id="a" transform="matrix(0.951057,0.309017,-0.309017,0.951057,-1.8541,-0.293661)">
                            <path d="M0,-6L0,0L3,0" style="fill:white;fill-rule:nonzero;"/>
                        </g>
                        <g id="a33" serif:id="a" transform="matrix(-0.951057,0.309017,0.309017,0.951057,1.8541,-0.293661)">
                            <path d="M0,-6L0,0L3,0" style="fill:white;fill-rule:nonzero;"/>
                        </g>
                    </g>
                </g>
                <g id="b17" serif:id="b" transform="matrix(0.309017,-0.951057,0.951057,0.309017,0,0)">
                    <g id="a34" serif:id="a" transform="matrix(0.951057,0.309017,-0.309017,0.951057,-1.8541,-0.293661)">
                        <path d="M0,-6L0,0L3,0" style="fill:white;fill-rule:nonzero;"/>
                    </g>
                    <g id="a35" serif:id="a" transform="matrix(-0.951057,0.309017,0.309017,0.951057,1.8541,-0.293661)">
                        <path d="M0,-6L0,0L3,0" style="fill:white;fill-rule:nonzero;"/>
                    </g>
                </g>
                <g id="c7" serif:id="c" transform="matrix(-0.809017,0.587785,-0.587785,-0.809017,0,0)">
                    <g id="b18" serif:id="b">
                        <g id="a36" serif:id="a" transform="matrix(0.951057,0.309017,-0.309017,0.951057,-1.8541,-0.293661)">
                            <path d="M0,-6L0,0L3,0" style="fill:white;fill-rule:nonzero;"/>
                        </g>
                        <g id="a37" serif:id="a" transform="matrix(-0.951057,0.309017,0.309017,0.951057,1.8541,-0.293661)">
                            <path d="M0,-6L0,0L3,0" style="fill:white;fill-rule:nonzero;"/>
                        </g>
                    </g>
                    <g id="b19" serif:id="b" transform="matrix(0.309017,0.951057,-0.951057,0.309017,0,0)">
                        <g id="a38" serif:id="a" transform="matrix(0.951057,0.309017,-0.309017,0.951057,-1.8541,-0.293661)">
                            <path d="M0,-6L0,0L3,0" style="fill:white;fill-rule:nonzero;"/>
                        </g>
                        <g id="a39" serif:id="a" transform="matrix(-0.951057,0.309017,0.309017,0.951057,1.8541,-0.293661)">
                            <path d="M0,-6L0,0L3,0" style="fill:white;fill-rule:nonzero;"/>
                        </g>
                    </g>
                </g>
            </g>
            <g id="d4" serif:id="d" transform="matrix(1,0,0,1,0,-24)">
                <g id="c8" serif:id="c">
                    <g id="b20" serif:id="b">
                        <g id="a40" serif:id="a" transform="matrix(0.951057,0.309017,-0.309017,0.951057,-1.8541,-0.293661)">
                            <path d="M0,-6L0,0L3,0" style="fill:white;fill-rule:nonzero;"/>
                        </g>
                        <g id="a41" serif:id="a" transform="matrix(-0.951057,0.309017,0.309017,0.951057,1.8541,-0.293661)">
                            <path d="M0,-6L0,0L3,0" style="fill:white;fill-rule:nonzero;"/>
                        </g>
                    </g>
                    <g id="b21" serif:id="b" transform="matrix(0.309017,0.951057,-0.951057,0.309017,0,0)">
                        <g id="a42" serif:id="a" transform="matrix(0.951057,0.309017,-0.309017,0.951057,-1.8541,-0.293661)">
                            <path d="M0,-6L0,0L3,0" style="fill:white;fill-rule:nonzero;"/>
                        </g>
                        <g id="a43" serif:id="a" transform="matrix(-0.951057,0.309017,0.309017,0.951057,1.8541,-0.293661)">
                            <path d="M0,-6L0,0L3,0" style="fill:white;fill-rule:nonzero;"/>
                        </g>
                    </g>
                </g>
                <g id="b22" serif:id="b" transform="matrix(0.309017,-0.951057,0.951057,0.309017,0,0)">
                    <g id="a44" serif:id="a" transform="matrix(0.951057,0.309017,-0.309017,0.951057,-1.8541,-0.293661)">
                        <path d="M0,-6L0,0L3,0" style="fill:white;fill-rule:nonzero;"/>
                    </g>
                    <g id="a45" serif:id="a" transform="matrix(-0.951057,0.309017,0.309017,0.951057,1.8541,-0.293661)">
                        <path d="M0,-6L0,0L3,0" style="fill:white;fill-rule:nonzero;"/>
                    </g>
                </g>
                <g id="c9" serif:id="c" transform="matrix(-0.809017,0.587785,-0.587785,-0.809017,0,0)">
                    <g id="b23" serif:id="b">
                        <g id="a46" serif:id="a" transform="matrix(0.951057,0.309017,-0.309017,0.951057,-1.8541,-0.293661)">
                            <path d="M0,-6L0,0L3,0" style="fill:white;fill-rule:nonzero;"/>
                        </g>
                        <g id="a47" serif:id="a" transform="matrix(-0.951057,0.309017,0.309017,0.951057,1.8541,-0.293661)">
                            <path d="M0,-6L0,0L3,0" style="fill:white;fill-rule:nonzero;"/>
                        </g>
                    </g>
                    <g id="b24" serif:id="b" transform="matrix(0.309017,0.951057,-0.951057,0.309017,0,0)">
                        <g id="a48" serif:id="a" transform="matrix(0.951057,0.309017,-0.309017,0.951057,-1.8541,-0.293661)">
                            <path d="M0,-6L0,0L3,0" style="fill:white;fill-rule:nonzero;"/>
                        </g>
                        <g id="a49" serif:id="a" transform="matrix(-0.951057,0.309017,0.309017,0.951057,1.8541,-0.293661)">
                            <path d="M0,-6L0,0L3,0" style="fill:white;fill-rule:nonzero;"/>
                        </g>
                    </g>
                </g>
            </g>
            <g id="d5" serif:id="d" transform="matrix(1,0,0,1,0,-48)">
                <g id="c10" serif:id="c">
                    <g id="b25" serif:id="b">
                        <g id="a50" serif:id="a" transform="matrix(0.951057,0.309017,-0.309017,0.951057,-1.8541,-0.293661)">
                            <path d="M0,-6L0,0L3,0" style="fill:white;fill-rule:nonzero;"/>
                        </g>
                        <g id="a51" serif:id="a" transform="matrix(-0.951057,0.309017,0.309017,0.951057,1.8541,-0.293661)">
                            <path d="M0,-6L0,0L3,0" style="fill:white;fill-rule:nonzero;"/>
                        </g>
                    </g>
                    <g id="b26" serif:id="b" transform="matrix(0.309017,0.951057,-0.951057,0.309017,0,0)">
                        <g id="a52" serif:id="a" transform="matrix(0.951057,0.309017,-0.309017,0.951057,-1.8541,-0.293661)">
                            <path d="M0,-6L0,0L3,0" style="fill:white;fill-rule:nonzero;"/>
                        </g>
                        <g id="a53" serif:id="a" transform="matrix(-0.951057,0.309017,0.309017,0.951057,1.8541,-0.293661)">
                            <path d="M0,-6L0,0L3,0" style="fill:white;fill-rule:nonzero;"/>
                        </g>
                    </g>
                </g>
                <g id="b27" serif:id="b" transform="matrix(0.309017,-0.951057,0.951057,0.309017,0,0)">
                    <g id="a54" serif:id="a" transform="matrix(0.951057,0.309017,-0.309017,0.951057,-1.8541,-0.293661)">
                        <path d="M0,-6L0,0L3,0" style="fill:white;fill-rule:nonzero;"/>
                    </g>
                    <g id="a55" serif:id="a" transform="matrix(-0.951057,0.309017,0.309017,0.951057,1.8541,-0.293661)">
                        <path d="M0,-6L0,0L3,0" style="fill:white;fill-rule:nonzero;"/>
                    </g>
                </g>
                <g id="c11" serif:id="c" transform="matrix(-0.809017,0.587785,-0.587785,-0.809017,0,0)">
                    <g id="b28" serif:id="b">
                        <g id="a56" serif:id="a" transform="matrix(0.951057,0.309017,-0.309017,0.951057,-1.8541,-0.293661)">
                            <path d="M0,-6L0,0L3,0" style="fill:white;fill-rule:nonzero;"/>
                        </g>
                        <g id="a57" serif:id="a" transform="matrix(-0.951057,0.309017,0.309017,0.951057,1.8541,-0.293661)">
                            <path d="M0,-6L0,0L3,0" style="fill:white;fill-rule:nonzero;"/>
                        </g>
                    </g>
                    <g id="b29" serif:id="b" transform="matrix(0.309017,0.951057,-0.951057,0.309017,0,0)">
                        <g id="a58" serif:id="a" transform="matrix(0.951057,0.309017,-0.309017,0.951057,-1.8541,-0.293661)">
                            <path d="M0,-6L0,0L3,0" style="fill:white;fill-rule:nonzero;"/>
                        </g>
                        <g id="a59" serif:id="a" transform="matrix(-0.951057,0.309017,0.309017,0.951057,1.8541,-0.293661)">
                            <path d="M0,-6L0,0L3,0" style="fill:white;fill-rule:nonzero;"/>
                        </g>
                    </g>
                </g>
            </g>
        </g>
        <g id="e2" serif:id="e" transform="matrix(1,0,0,1,48,0)">
            <g id="d6" serif:id="d">
                <g id="c12" serif:id="c">
                    <g id="b30" serif:id="b">
                        <g id="a60" serif:id="a" transform="matrix(0.951057,0.309017,-0.309017,0.951057,-1.8541,-0.293661)">
                            <path d="M0,-6L0,0L3,0" style="fill:white;fill-rule:nonzero;"/>
                        </g>
                        <g id="a61" serif:id="a" transform="matrix(-0.951057,0.309017,0.309017,0.951057,1.8541,-0.293661)">
                            <path d="M0,-6L0,0L3,0" style="fill:white;fill-rule:nonzero;"/>
                        </g>
                    </g>
                    <g id="b31" serif:id="b" transform="matrix(0.309017,0.951057,-0.951057,0.309017,0,0)">
                        <g id="a62" serif:id="a" transform="matrix(0.951057,0.309017,-0.309017,0.951057,-1.8541,-0.293661)">
                            <path d="M0,-6L0,0L3,0" style="fill:white;fill-rule:nonzero;"/>
                        </g>
                        <g id="a63" serif:id="a" transform="matrix(-0.951057,0.309017,0.309017,0.951057,1.8541,-0.293661)">
                            <path d="M0,-6L0,0L3,0" style="fill:white;fill-rule:nonzero;"/>
                        </g>
                    </g>
                </g>
                <g id="b32" serif:id="b" transform="matrix(0.309017,-0.951057,0.951057,0.309017,0,0)">
                    <g id="a64" serif:id="a" transform="matrix(0.951057,0.309017,-0.309017,0.951057,-1.8541,-0.293661)">
                        <path d="M0,-6L0,0L3,0" style="fill:white;fill-rule:nonzero;"/>
                    </g>
                    <g id="a65" serif:id="a" transform="matrix(-0.951057,0.309017,0.309017,0.951057,1.8541,-0.293661)">
                        <path d="M0,-6L0,0L3,0" style="fill:white;fill-rule:nonzero;"/>
                    </g>
                </g>
                <g id="c13" serif:id="c" transform="matrix(-0.809017,0.587785,-0.587785,-0.809017,0,0)">
                    <g id="b33" serif:id="b">
                        <g id="a66" serif:id="a" transform="matrix(0.951057,0.309017,-0.309017,0.951057,-1.8541,-0.293661)">
                            <path d="M0,-6L0,0L3,0" style="fill:white;fill-rule:nonzero;"/>
                        </g>
                        <g id="a67" serif:id="a" transform="matrix(-0.951057,0.309017,0.309017,0.951057,1.8541,-0.293661)">
                            <path d="M0,-6L0,0L3,0" style="fill:white;fill-rule:nonzero;"/>
                        </g>
                    </g>
                    <g id="b34" serif:id="b" transform="matrix(0.309017,0.951057,-0.951057,0.309017,0,0)">
                        <g id="a68" serif:id="a" transform="matrix(0.951057,0.309017,-0.309017,0.951057,-1.8541,-0.293661)">
                            <path d="M0,-6L0,0L3,0" style="fill:white;fill-rule:nonzero;"/>
                        </g>
                        <g id="a69" serif:id="a" transform="matrix(-0.951057,0.309017,0.309017,0.951057,1.8541,-0.293661)">
                            <path d="M0,-6L0,0L3,0" style="fill:white;fill-rule:nonzero;"/>
                        </g>
                    </g>
                </g>
            </g>
            <g id="d7" serif:id="d" transform="matrix(1,0,0,1,0,-24)">
                <g id="c14" serif:id="c">
                    <g id="b35" serif:id="b">
                        <g id="a70" serif:id="a" transform="matrix(0.951057,0.309017,-0.309017,0.951057,-1.8541,-0.293661)">
                            <path d="M0,-6L0,0L3,0" style="fill:white;fill-rule:nonzero;"/>
                        </g>
                        <g id="a71" serif:id="a" transform="matrix(-0.951057,0.309017,0.309017,0.951057,1.8541,-0.293661)">
                            <path d="M0,-6L0,0L3,0" style="fill:white;fill-rule:nonzero;"/>
                        </g>
                    </g>
                    <g id="b36" serif:id="b" transform="matrix(0.309017,0.951057,-0.951057,0.309017,0,0)">
                        <g id="a72" serif:id="a" transform="matrix(0.951057,0.309017,-0.309017,0.951057,-1.8541,-0.293661)">
                            <path d="M0,-6L0,0L3,0" style="fill:white;fill-rule:nonzero;"/>
                        </g>
                        <g id="a73" serif:id="a" transform="matrix(-0.951057,0.309017,0.309017,0.951057,1.8541,-0.293661)">
                            <path d="M0,-6L0,0L3,0" style="fill:white;fill-rule:nonzero;"/>
                        </g>
                    </g>
                </g>
                <g id="b37" serif:id="b" transform="matrix(0.309017,-0.951057,0.951057,0.309017,0,0)">
                    <g id="a74" serif:id="a" transform="matrix(0.951057,0.309017,-0.309017,0.951057,-1.8541,-0.293661)">
                        <path d="M0,-6L0,0L3,0" style="fill:white;fill-rule:nonzero;"/>
                    </g>
                    <g id="a75" serif:id="a" transform="matrix(-0.951057,0.309017,0.309017,0.951057,1.8541,-0.293661)">
                        <path d="M0,-6L0,0L3,0" style="fill:white;fill-rule:nonzero;"/>
                    </g>
                </g>
                <g id="c15" serif:id="c" transform="matrix(-0.809017,0.587785,-0.587785,-0.809017,0,0)">
                    <g id="b38" serif:id="b">
                        <g id="a76" serif:id="a" transform="matrix(0.951057,0.309017,-0.309017,0.951057,-1.8541,-0.293661)">
                            <path d="M0,-6L0,0L3,0" style="fill:white;fill-rule:nonzero;"/>
                        </g>
                        <g id="a77" serif:id="a" transform="matrix(-0.951057,0.309017,0.309017,0.951057,1.8541,-0.293661)">
                            <path d="M0,-6L0,0L3,0" style="fill:white;fill-rule:nonzero;"/>
                        </g>
                    </g>
                    <g id="b39" serif:id="b" transform="matrix(0.309017,0.951057,-0.951057,0.309017,0,0)">
                        <g id="a78" serif:id="a" transform="matrix(0.951057,0.309017,-0.309017,0.951057,-1.8541,-0.293661)">
                            <path d="M0,-6L0,0L3,0" style="fill:white;fill-rule:nonzero;"/>
                        </g>
                        <g id="a79" serif:id="a" transform="matrix(-0.951057,0.309017,0.309017,0.951057,1.8541,-0.293661)">
                            <path d="M0,-6L0,0L3,0" style="fill:white;fill-rule:nonzero;"/>
                        </g>
                    </g>
                </g>
            </g>
            <g id="d8" serif:id="d" transform="matrix(1,0,0,1,0,-48)">
                <g id="c16" serif:id="c">
                    <g id="b40" serif:id="b">
                        <g id="a80" serif:id="a" transform="matrix(0.951057,0.309017,-0.309017,0.951057,-1.8541,-0.293661)">
                            <path d="M0,-6L0,0L3,0" style="fill:white;fill-rule:nonzero;"/>
                        </g>
                        <g id="a81" serif:id="a" transform="matrix(-0.951057,0.309017,0.309017,0.951057,1.8541,-0.293661)">
                            <path d="M0,-6L0,0L3,0" style="fill:white;fill-rule:nonzero;"/>
                        </g>
                    </g>
                    <g id="b41" serif:id="b" transform="matrix(0.309017,0.951057,-0.951057,0.309017,0,0)">
                        <g id="a82" serif:id="a" transform="matrix(0.951057,0.309017,-0.309017,0.951057,-1.8541,-0.293661)">
                            <path d="M0,-6L0,0L3,0" style="fill:white;fill-rule:nonzero;"/>
                        </g>
                        <g id="a83" serif:id="a" transform="matrix(-0.951057,0.309017,0.309017,0.951057,1.8541,-0.293661)">
                            <path d="M0,-6L0,0L3,0" style="fill:white;fill-rule:nonzero;"/>
                        </g>
                    </g>
                </g>
                <g id="b42" serif:id="b" transform="matrix(0.309017,-0.951057,0.951057,0.309017,0,0)">
                    <g id="a84" serif:id="a" transform="matrix(0.951057,0.309017,-0.309017,0.951057,-1.8541,-0.293661)">
                        <path d="M0,-6L0,0L3,0" style="fill:white;fill-rule:nonzero;"/>
                    </g>
                    <g id="a85" serif:id="a" transform="matrix(-0.951057,0.309017,0.309017,0.951057,1.8541,-0.293661)">
                        <path d="M0,-6L0,0L3,0" style="fill:white;fill-rule:nonzero;"/>
                    </g>
                </g>
                <g id="c17" serif:id="c" transform="matrix(-0.809017,0.587785,-0.587785,-0.809017,0,0)">
                    <g id="b43" serif:id="b">
                        <g id="a86" serif:id="a" transform="matrix(0.951057,0.309017,-0.309017,0.951057,-1.8541,-0.293661)">
                            <path d="M0,-6L0,0L3,0" style="fill:white;fill-rule:nonzero;"/>
                        </g>
                        <g id="a87" serif:id="a" transform="matrix(-0.951057,0.309017,0.309017,0.951057,1.8541,-0.293661)">
                            <path d="M0,-6L0,0L3,0" style="fill:white;fill-rule:nonzero;"/>
                        </g>
                    </g>
                    <g id="b44" serif:id="b" transform="matrix(0.309017,0.951057,-0.951057,0.309017,0,0)">
                        <g id="a88" serif:id="a" transform="matrix(0.951057,0.309017,-0.309017,0.951057,-1.8541,-0.293661)">
                            <path d="M0,-6L0,0L3,0" style="fill:white;fill-rule:nonzero;"/>
                        </g>
                        <g id="a89" serif:id="a" transform="matrix(-0.951057,0.309017,0.309017,0.951057,1.8541,-0.293661)">
                            <path d="M0,-6L0,0L3,0" style="fill:white;fill-rule:nonzero;"/>
                        </g>
                    </g>
                </g>
            </g>
        </g>
        <g id="d9" serif:id="d" transform="matrix(1,0,0,1,-48,0)">
            <g id="c18" serif:id="c">
                <g id="b45" serif:id="b">
                    <g id="a90" serif:id="a" transform="matrix(0.951057,0.309017,-0.309017,0.951057,-1.8541,-0.293661)">
                        <path d="M0,-6L0,0L3,0" style="fill:white;fill-rule:nonzero;"/>
                    </g>
                    <g id="a91" serif:id="a" transform="matrix(-0.951057,0.309017,0.309017,0.951057,1.8541,-0.293661)">
                        <path d="M0,-6L0,0L3,0" style="fill:white;fill-rule:nonzero;"/>
                    </g>
                </g>
                <g id="b46" serif:id="b" transform="matrix(0.309017,0.951057,-0.951057,0.309017,0,0)">
                    <g id="a92" serif:id="a" transform="matrix(0.951057,0.309017,-0.309017,0.951057,-1.8541,-0.293661)">
                        <path d="M0,-6L0,0L3,0" style="fill:white;fill-rule:nonzero;"/>
                    </g>
                    <g id="a93" serif:id="a" transform="matrix(-0.951057,0.309017,0.309017,0.951057,1.8541,-0.293661)">
                        <path d="M0,-6L0,0L3,0" style="fill:white;fill-rule:nonzero;"/>
                    </g>
                </g>
            </g>
            <g id="b47" serif:id="b" transform="matrix(0.309017,-0.951057,0.951057,0.309017,0,0)">
                <g id="a94" serif:id="a" transform="matrix(0.951057,0.309017,-0.309017,0.951057,-1.8541,-0.293661)">
                    <path d="M0,-6L0,0L3,0" style="fill:white;fill-rule:nonzero;"/>
                </g>
                <g id="a95" serif:id="a" transform="matrix(-0.951057,0.309017,0.309017,0.951057,1.8541,-0.293661)">
                    <path d="M0,-6L0,0L3,0" style="fill:white;fill-rule:nonzero;"/>
                </g>
            </g>
            <g id="c19" serif:id="c" transform="matrix(-0.809017,0.587785,-0.587785,-0.809017,0,0)">
                <g id="b48" serif:id="b">
                    <g id="a96" serif:id="a" transform="matrix(0.951057,0.309017,-0.309017,0.951057,-1.8541,-0.293661)">
                        <path d="M0,-6L0,0L3,0" style="fill:white;fill-rule:nonzero;"/>
                    </g>
                    <g id="a97" serif:id="a" transform="matrix(-0.951057,0.309017,0.309017,0.951057,1.8541,-0.293661)">
                        <path d="M0,-6L0,0L3,0" style="fill:white;fill-rule:nonzero;"/>
                    </g>
                </g>
                <g id="b49" serif:id="b" transform="matrix(0.309017,0.951057,-0.951057,0.309017,0,0)">
                    <g id="a98" serif:id="a" transform="matrix(0.951057,0.309017,-0.309017,0.951057,-1.8541,-0.293661)">
                        <path d="M0,-6L0,0L3,0" style="fill:white;fill-rule:nonzero;"/>
                    </g>
                    <g id="a99" serif:id="a" transform="matrix(-0.951057,0.309017,0.309017,0.951057,1.8541,-0.293661)">
                        <path d="M0,-6L0,0L3,0" style="fill:white;fill-rule:nonzero;"/>
                    </g>
                </g>
            </g>
        </g>
        <g id="d10" serif:id="d" transform="matrix(1,0,0,1,-24,0)">
            <g id="c20" serif:id="c">
                <g id="b50" serif:id="b">
                    <g id="a100" serif:id="a" transform="matrix(0.951057,0.309017,-0.309017,0.951057,-1.8541,-0.293661)">
                        <path d="M0,-6L0,0L3,0" style="fill:white;fill-rule:nonzero;"/>
                    </g>
                    <g id="a101" serif:id="a" transform="matrix(-0.951057,0.309017,0.309017,0.951057,1.8541,-0.293661)">
                        <path d="M0,-6L0,0L3,0" style="fill:white;fill-rule:nonzero;"/>
                    </g>
                </g>
                <g id="b51" serif:id="b" transform="matrix(0.309017,0.951057,-0.951057,0.309017,0,0)">
                    <g id="a102" serif:id="a" transform="matrix(0.951057,0.309017,-0.309017,0.951057,-1.8541,-0.293661)">
                        <path d="M0,-6L0,0L3,0" style="fill:white;fill-rule:nonzero;"/>
                    </g>
                    <g id="a103" serif:id="a" transform="matrix(-0.951057,0.309017,0.309017,0.951057,1.8541,-0.293661)">
                        <path d="M0,-6L0,0L3,0" style="fill:white;fill-rule:nonzero;"/>
                    </g>
                </g>
            </g>
            <g id="b52" serif:id="b" transform="matrix(0.309017,-0.951057,0.951057,0.309017,0,0)">
                <g id="a104" serif:id="a" transform="matrix(0.951057,0.309017,-0.309017,0.951057,-1.8541,-0.293661)">
                    <path d="M0,-6L0,0L3,0" style="fill:white;fill-rule:nonzero;"/>
                </g>
                <g id="a105" serif:id="a" transform="matrix(-0.951057,0.309017,0.309017,0.951057,1.8541,-0.293661)">
                    <path d="M0,-6L0,0L3,0" style="fill:white;fill-rule:nonzero;"/>
                </g>
            </g>
            <g id="c21" serif:id="c" transform="matrix(-0.809017,0.587785,-0.587785,-0.809017,0,0)">
                <g id="b53" serif:id="b">
                    <g id="a106" serif:id="a" transform="matrix(0.951057,0.309017,-0.309017,0.951057,-1.8541,-0.293661)">
                        <path d="M0,-6L0,0L3,0" style="fill:white;fill-rule:nonzero;"/>
                    </g>
                    <g id="a107" serif:id="a" transform="matrix(-0.951057,0.309017,0.309017,0.951057,1.8541,-0.293661)">
                        <path d="M0,-6L0,0L3,0" style="fill:white;fill-rule:nonzero;"/>
                    </g>
                </g>
                <g id="b54" serif:id="b" transform="matrix(0.309017,0.951057,-0.951057,0.309017,0,0)">
                    <g id="a108" serif:id="a" transform="matrix(0.951057,0.309017,-0.309017,0.951057,-1.8541,-0.293661)">
                        <path d="M0,-6L0,0L3,0" style="fill:white;fill-rule:nonzero;"/>
                    </g>
                    <g id="a109" serif:id="a" transform="matrix(-0.951057,0.309017,0.309017,0.951057,1.8541,-0.293661)">
                        <path d="M0,-6L0,0L3,0" style="fill:white;fill-rule:nonzero;"/>
                    </g>
                </g>
            </g>
        </g>
        <g id="d11" serif:id="d" transform="matrix(1,0,0,1,-24,-24)">
            <g id="c22" serif:id="c">
                <g id="b55" serif:id="b">
                    <g id="a110" serif:id="a" transform="matrix(0.951057,0.309017,-0.309017,0.951057,-1.8541,-0.293661)">
                        <path d="M0,-6L0,0L3,0" style="fill:white;fill-rule:nonzero;"/>
                    </g>
                    <g id="a111" serif:id="a" transform="matrix(-0.951057,0.309017,0.309017,0.951057,1.8541,-0.293661)">
                        <path d="M0,-6L0,0L3,0" style="fill:white;fill-rule:nonzero;"/>
                    </g>
                </g>
                <g id="b56" serif:id="b" transform="matrix(0.309017,0.951057,-0.951057,0.309017,0,0)">
                    <g id="a112" serif:id="a" transform="matrix(0.951057,0.309017,-0.309017,0.951057,-1.8541,-0.293661)">
                        <path d="M0,-6L0,0L3,0" style="fill:white;fill-rule:nonzero;"/>
                    </g>
                    <g id="a113" serif:id="a" transform="matrix(-0.951057,0.309017,0.309017,0.951057,1.8541,-0.293661)">
                        <path d="M0,-6L0,0L3,0" style="fill:white;fill-rule:nonzero;"/>
                    </g>
                </g>
            </g>
            <g id="b57" serif:id="b" transform="matrix(0.309017,-0.951057,0.951057,0.309017,0,0)">
                <g id="a114" serif:id="a" transform="matrix(0.951057,0.309017,-0.309017,0.951057,-1.8541,-0.293661)">
                    <path d="M0,-6L0,0L3,0" style="fill:white;fill-rule:nonzero;"/>
                </g>
                <g id="a115" serif:id="a" transform="matrix(-0.951057,0.309017,0.309017,0.951057,1.8541,-0.293661)">
                    <path d="M0,-6L0,0L3,0" style="fill:white;fill-rule:nonzero;"/>
                </g>
            </g>
            <g id="c23" serif:id="c" transform="matrix(-0.809017,0.587785,-0.587785,-0.809017,0,0)">
                <g id="b58" serif:id="b">
                    <g id="a116" serif:id="a" transform="matrix(0.951057,0.309017,-0.309017,0.951057,-1.8541,-0.293661)">
                        <path d="M0,-6L0,0L3,0" style="fill:white;fill-rule:nonzero;"/>
                    </g>
                    <g id="a117" serif:id="a" transform="matrix(-0.951057,0.309017,0.309017,0.951057,1.8541,-0.293661)">
                        <path d="M0,-6L0,0L3,0" style="fill:white;fill-rule:nonzero;"/>
                    </g>
                </g>
                <g id="b59" serif:id="b" transform="matrix(0.309017,0.951057,-0.951057,0.309017,0,0)">
                    <g id="a118" serif:id="a" transform="matrix(0.951057,0.309017,-0.309017,0.951057,-1.8541,-0.293661)">
                        <path d="M0,-6L0,0L3,0" style="fill:white;fill-rule:nonzero;"/>
                    </g>
                    <g id="a119" serif:id="a" transform="matrix(-0.951057,0.309017,0.309017,0.951057,1.8541,-0.293661)">
                        <path d="M0,-6L0,0L3,0" style="fill:white;fill-rule:nonzero;"/>
                    </g>
                </g>
            </g>
        </g>
    </g>
</svg>
