<?xml version="1.0" encoding="UTF-8" standalone="no"?>
<!DOCTYPE svg PUBLIC "-//W3C//DTD SVG 1.1//EN" "http://www.w3.org/Graphics/SVG/1.1/DTD/svg11.dtd">
<svg width="100%" height="100%" viewBox="0 0 900 500" version="1.1" xmlns="http://www.w3.org/2000/svg" xmlns:xlink="http://www.w3.org/1999/xlink" xml:space="preserve" xmlns:serif="http://www.serif.com/" style="fill-rule:evenodd;clip-rule:evenodd;">
    <g transform="matrix(0.833333,0,0,0.833333,-50,3.87569e-14)">
        <rect x="0" y="0" width="1200" height="600" style="fill:rgb(0,102,0);"/>
    </g>
    <g transform="matrix(0.833333,0,0,0.833333,-50,3.87569e-14)">
        <rect x="0" y="0" width="1200" height="428.571" style="fill:white;"/>
    </g>
    <g transform="matrix(0.833333,0,0,0.833333,-50,3.87569e-14)">
        <rect x="0" y="0" width="1200" height="171.429" style="fill:rgb(204,0,0);"/>
    </g>
    <g transform="matrix(0.833333,0,0,0.833333,-50,3.87569e-14)">
        <path d="M576,292.029C577.916,288.734 581.451,286.7 585.262,286.7C591.016,286.7 595.795,291.335 595.971,297.086L595.971,339.943L604.029,339.943L604.029,297.086C604.205,291.335 608.984,286.7 614.738,286.7C618.549,286.7 622.084,288.734 624,292.029C624.852,289.461 625.286,286.773 625.286,284.068C625.286,270.197 613.871,258.782 600,258.782C586.129,258.782 574.714,270.197 574.714,284.068C574.714,286.773 575.148,289.461 576,292.029" style="fill:rgb(248,195,0);fill-rule:nonzero;"/>
        <path d="M581.743,280.843C588.936,279.372 596.312,282.679 600,289.029C603.688,282.679 611.064,279.372 618.257,280.843C617.01,271.761 609.167,264.922 600,264.922C590.833,264.922 582.99,271.761 581.743,280.843" style="fill:white;fill-rule:nonzero;"/>
        <path id="w" d="M595.971,322.823C594.471,339.527 580.302,352.481 563.531,352.481C555.255,352.481 547.283,349.327 541.247,343.665C536.128,356.516 523.626,364.993 509.794,364.993C502.71,364.993 495.801,362.769 490.047,358.637C493.175,389.859 539.977,383.485 543.464,353.127C558.167,378.94 590.498,371.547 599.958,339.927L595.971,322.823Z" style="fill:rgb(248,195,0);fill-rule:nonzero;"/>
        <g id="w1" serif:id="w" transform="matrix(-1,0,0,1,1200,0)">
            <path d="M595.971,322.823C594.471,339.527 580.302,352.481 563.531,352.481C555.255,352.481 547.283,349.327 541.247,343.665C536.128,356.516 523.626,364.993 509.794,364.993C502.71,364.993 495.801,362.769 490.047,358.637C493.175,389.859 539.977,383.485 543.464,353.127C558.167,378.94 590.498,371.547 599.958,339.927L595.971,322.823Z" style="fill:rgb(248,195,0);fill-rule:nonzero;"/>
        </g>
        <path id="r" d="M564.72,378.266C558.19,392.362 545.139,394.784 533.722,383.405C533.722,383.405 538.311,380.162 543.225,379.268C542.303,375.347 544.192,369.923 546.855,366.99C549.647,368.899 553.544,372.723 554.535,377.168C561.417,376.277 564.72,378.266 564.72,378.266L564.72,378.266Z" style="fill:rgb(248,195,0);fill-rule:nonzero;"/>
        <g id="r1" serif:id="r" transform="matrix(0.986658,0.162809,-0.162809,0.986658,120.204,-88.4908)">
            <path d="M564.72,378.266C558.19,392.362 545.139,394.784 533.722,383.405C533.722,383.405 538.311,380.162 543.225,379.268C542.303,375.347 544.192,369.923 546.855,366.99C549.647,368.899 553.544,372.723 554.535,377.168C561.417,376.277 564.72,378.266 564.72,378.266L564.72,378.266Z" style="fill:rgb(248,195,0);fill-rule:nonzero;"/>
        </g>
        <g id="r2" serif:id="r" transform="matrix(0.946986,0.321274,-0.321274,0.946986,253.212,-156.23)">
            <path d="M564.72,378.266C558.19,392.362 545.139,394.784 533.722,383.405C533.722,383.405 538.311,380.162 543.225,379.268C542.303,375.347 544.192,369.923 546.855,366.99C549.647,368.899 553.544,372.723 554.535,377.168C561.417,376.277 564.72,378.266 564.72,378.266L564.72,378.266Z" style="fill:rgb(248,195,0);fill-rule:nonzero;"/>
        </g>
        <path d="M516.857,409.714C571.103,393.567 628.897,393.567 683.143,409.714" style="fill:none;fill-rule:nonzero;stroke:rgb(248,195,0);stroke-width:13.71px;"/>
        <g transform="matrix(1,0,0,1,600,325.714)">
            <g transform="matrix(4.8669e-05,0,0,4.8669e-05,0,-120)">
                <path id="s" d="M0,-440292L258797,356204L-418743,-136058L418743,-136058L-258797,356204L0,-440292Z" style="fill:rgb(248,195,0);fill-rule:nonzero;"/>
            </g>
            <g id="h">
                <g id="s1" serif:id="s" transform="matrix(4.8669e-05,0,0,4.8669e-05,-60,-103.923)">
                    <path d="M0,-440292L258797,356204L-418743,-136058L418743,-136058L-258797,356204L0,-440292Z" style="fill:rgb(248,195,0);fill-rule:nonzero;"/>
                </g>
                <g id="s2" serif:id="s" transform="matrix(4.8669e-05,0,0,4.8669e-05,-103.923,-60)">
                    <path d="M0,-440292L258797,356204L-418743,-136058L418743,-136058L-258797,356204L0,-440292Z" style="fill:rgb(248,195,0);fill-rule:nonzero;"/>
                </g>
                <g id="s3" serif:id="s" transform="matrix(4.8669e-05,0,0,4.8669e-05,-120,4.59428e-14)">
                    <path d="M0,-440292L258797,356204L-418743,-136058L418743,-136058L-258797,356204L0,-440292Z" style="fill:rgb(248,195,0);fill-rule:nonzero;"/>
                </g>
            </g>
            <g id="h1" serif:id="h" transform="matrix(-1,0,0,1,0,0)">
                <g id="s4" serif:id="s" transform="matrix(4.8669e-05,0,0,4.8669e-05,-60,-103.923)">
                    <path d="M0,-440292L258797,356204L-418743,-136058L418743,-136058L-258797,356204L0,-440292Z" style="fill:rgb(248,195,0);fill-rule:nonzero;"/>
                </g>
                <g id="s5" serif:id="s" transform="matrix(4.8669e-05,0,0,4.8669e-05,-103.923,-60)">
                    <path d="M0,-440292L258797,356204L-418743,-136058L418743,-136058L-258797,356204L0,-440292Z" style="fill:rgb(248,195,0);fill-rule:nonzero;"/>
                </g>
                <g id="s6" serif:id="s" transform="matrix(4.8669e-05,0,0,4.8669e-05,-120,4.59428e-14)">
                    <path d="M0,-440292L258797,356204L-418743,-136058L418743,-136058L-258797,356204L0,-440292Z" style="fill:rgb(248,195,0);fill-rule:nonzero;"/>
                </g>
            </g>
        </g>
    </g>
</svg>
