<?xml version="1.0" encoding="UTF-8" standalone="no"?>
<!DOCTYPE svg PUBLIC "-//W3C//DTD SVG 1.1//EN" "http://www.w3.org/Graphics/SVG/1.1/DTD/svg11.dtd">
<svg width="100%" height="100%" viewBox="0 0 1670 200" version="1.1" xmlns="http://www.w3.org/2000/svg" xmlns:xlink="http://www.w3.org/1999/xlink" xml:space="preserve" xmlns:serif="http://www.serif.com/" style="fill-rule:evenodd;clip-rule:evenodd;stroke-linejoin:round;stroke-miterlimit:2;">
    <g transform="matrix(9.55139,0,0,9.55139,-365.095,-7617.7)">
        <path d="M82.365,814.595L78.205,814.595L78.205,808.682L75.496,814.595L72.628,814.595L69.885,808.682L69.885,814.595L66.681,814.595L66.681,801.549L70.699,801.549L74.54,809.302L78.293,801.549L82.365,801.549L82.365,814.595ZM88.543,803.938L84.028,803.938L84.028,800.911L88.543,800.911L88.543,803.938ZM88.472,814.595L84.099,814.595L84.099,804.647L88.472,804.647L88.472,814.595ZM100.722,813.374C100.722,814.778 100.217,815.887 99.208,816.701C98.199,817.516 96.75,817.923 94.862,817.923C94.024,817.923 93.178,817.861 92.322,817.737C91.466,817.613 90.868,817.457 90.525,817.268L90.525,814.719C91.835,815.203 93.128,815.445 94.402,815.445C95.063,815.445 95.582,815.324 95.96,815.082C96.337,814.84 96.526,814.501 96.526,814.064L96.526,812.807C96.467,812.949 96.423,813.055 96.394,813.126C96.364,813.197 96.272,813.323 96.119,813.506C95.966,813.689 95.795,813.834 95.606,813.94C95.417,814.046 95.143,814.147 94.783,814.241C94.423,814.335 94.013,814.383 93.552,814.383C93.045,814.383 92.576,814.318 92.145,814.188C91.714,814.058 91.304,813.837 90.915,813.524C90.525,813.211 90.219,812.751 89.994,812.143C89.77,811.535 89.658,810.801 89.658,809.939L89.658,809.196C89.658,807.803 90.039,806.688 90.8,805.85C91.561,805.012 92.508,804.593 93.641,804.593C94.408,804.593 94.995,804.673 95.402,804.832C95.809,804.992 96.172,805.295 96.491,805.744L96.491,804.647L100.722,804.647L100.722,813.374ZM96.367,810.293L96.367,809.037C96.367,808.387 96.282,807.907 96.11,807.594C95.939,807.281 95.653,807.125 95.252,807.125C94.827,807.125 94.535,807.281 94.376,807.594C94.216,807.907 94.137,808.464 94.137,809.267L94.137,809.78C94.137,810.488 94.175,811.007 94.252,811.338C94.328,811.668 94.437,811.875 94.579,811.957C94.721,812.04 94.945,812.081 95.252,812.081C95.582,812.081 95.851,811.913 96.057,811.577C96.264,811.24 96.367,810.813 96.367,810.293ZM111.857,808.806L107.714,808.806C107.761,808.441 107.726,808.148 107.608,807.93C107.49,807.712 107.331,807.603 107.13,807.603C106.788,807.603 106.528,807.75 106.351,808.045L106.351,814.595L101.997,814.595L101.997,804.647L106.245,804.647L106.298,806.452C106.534,805.815 106.921,805.322 107.457,804.974C107.994,804.626 108.647,804.452 109.414,804.452C110.334,804.452 111.033,804.838 111.511,805.611C111.989,806.384 112.104,807.449 111.857,808.806ZM122.496,814.595L118.389,814.595L118.265,813.179C118.182,813.533 117.867,813.878 117.318,814.214C116.769,814.551 116.111,814.719 115.344,814.719C114.412,814.719 113.642,814.465 113.034,813.958C112.426,813.45 112.122,812.724 112.122,811.78L112.122,811.125C112.122,810.229 112.432,809.461 113.051,808.824C113.671,808.187 114.547,807.868 115.68,807.868C116.341,807.868 117.155,808.004 118.123,808.275L118.123,807.851C118.123,807.201 117.61,806.877 116.583,806.877C116.017,806.877 115.373,806.96 114.653,807.125C113.934,807.29 113.432,807.467 113.149,807.656L113.149,805.284C113.432,805.095 114.052,804.909 115.008,804.726C115.963,804.543 116.92,804.452 117.875,804.452C119.527,804.452 120.711,804.815 121.425,805.54C122.139,806.266 122.496,807.414 122.496,808.984L122.496,814.595ZM118.247,811.497L118.247,810.771C118.247,810.465 118.191,810.24 118.079,810.099C117.967,809.957 117.769,809.886 117.486,809.886C117.214,809.886 117.023,809.963 116.91,810.116C116.799,810.27 116.742,810.541 116.742,810.931L116.742,811.373C116.742,811.963 116.984,812.258 117.468,812.258C117.728,812.258 117.922,812.188 118.052,812.046C118.182,811.904 118.247,811.721 118.247,811.497ZM134.427,814.595L130.09,814.595L130.09,808.311C130.09,808.039 130.016,807.806 129.868,807.612C129.721,807.417 129.494,807.319 129.187,807.319C128.88,807.319 128.617,807.381 128.399,807.505C128.181,807.629 128.042,807.774 127.983,807.939L127.983,814.595L123.646,814.595L123.646,804.647L127.877,804.647L127.93,806.47C128.119,805.903 128.52,805.425 129.134,805.036C129.748,804.647 130.532,804.452 131.488,804.452C132.468,804.452 133.203,804.676 133.692,805.124C134.182,805.573 134.427,806.157 134.427,806.877L134.427,814.595ZM142.357,807.142L140.516,807.142L140.516,810.736C140.516,811.279 140.572,811.665 140.685,811.896C140.797,812.125 141,812.241 141.295,812.241C141.638,812.241 141.968,812.182 142.287,812.064L142.287,814.082C141.331,814.495 140.363,814.701 139.384,814.701C137.236,814.701 136.162,813.562 136.162,811.285L136.162,807.125L134.976,807.125L134.976,804.841L136.162,804.823L137.064,801.619L140.516,801.619L140.516,804.841L142.357,804.841L142.357,807.142ZM163.883,814.595L159.723,814.595L159.723,808.682L157.015,814.595L154.147,814.595L151.403,808.682L151.403,814.595L148.199,814.595L148.199,801.549L152.218,801.549L156.059,809.302L159.812,801.549L163.883,801.549L163.883,814.595ZM176.54,809.939C176.54,811.297 176.056,812.444 175.089,813.382C174.121,814.321 172.699,814.79 170.823,814.79C170.126,814.79 169.459,814.698 168.822,814.515C168.185,814.333 167.601,814.055 167.07,813.683C166.539,813.311 166.114,812.804 165.795,812.161C165.476,811.518 165.317,810.777 165.317,809.939L165.317,809.267C165.317,807.957 165.825,806.821 166.84,805.859C167.854,804.897 169.235,804.416 170.982,804.416C172.599,804.416 173.929,804.885 174.974,805.824C176.018,806.762 176.54,807.909 176.54,809.267L176.54,809.939ZM172.062,810.488L172.062,808.86C172.062,808.128 171.964,807.626 171.77,807.355C171.575,807.083 171.294,806.948 170.929,806.948C170.539,806.948 170.25,807.083 170.061,807.355C169.872,807.626 169.778,808.128 169.778,808.86L169.778,810.488C169.778,811.267 169.881,811.795 170.088,812.072C170.294,812.35 170.575,812.489 170.929,812.489C171.259,812.489 171.531,812.356 171.743,812.09C171.956,811.825 172.062,811.291 172.062,810.488ZM188.507,810.559C188.507,811.892 188.103,812.922 187.294,813.648C186.486,814.374 185.515,814.737 184.382,814.737C183.792,814.737 183.241,814.663 182.727,814.515C182.214,814.368 181.886,814.229 181.745,814.099L181.674,814.595L177.638,814.595L177.638,801.549L181.745,801.549L181.745,806.133C181.91,805.673 182.249,805.278 182.763,804.947C183.276,804.617 183.91,804.452 184.665,804.452C185.669,804.452 186.56,804.762 187.339,805.381C188.117,806.001 188.507,806.912 188.507,808.116L188.507,810.559ZM184.064,810.524L184.064,808.789C184.064,808.246 183.969,807.865 183.78,807.647C183.592,807.429 183.291,807.319 182.878,807.319C182.689,807.319 182.491,807.361 182.284,807.443C182.078,807.526 181.939,807.62 181.869,807.727L181.869,812.152C182.034,812.353 182.382,812.453 182.913,812.453C183.314,812.453 183.606,812.314 183.789,812.037C183.972,811.76 184.064,811.255 184.064,810.524ZM194.26,803.938L189.746,803.938L189.746,800.911L194.26,800.911L194.26,803.938ZM194.189,814.595L189.817,814.595L189.817,804.647L194.189,804.647L194.189,814.595ZM200.049,814.595L195.641,814.595L195.641,801.549L200.049,801.549L200.049,814.595ZM211.803,810.311L205.59,810.311C205.59,811.149 205.787,811.724 206.183,812.037C206.578,812.35 207.171,812.506 207.962,812.506C209,812.506 210.092,812.182 211.237,811.532L211.237,813.851C210.222,814.489 208.77,814.807 206.882,814.807C205.029,814.807 203.616,814.391 202.642,813.559C201.669,812.728 201.182,811.527 201.182,809.957L201.182,809.249C201.182,807.915 201.672,806.768 202.651,805.806C203.631,804.844 204.941,804.363 206.581,804.363C208.245,804.363 209.531,804.817 210.44,805.726C211.349,806.635 211.803,807.792 211.803,809.196L211.803,810.311ZM207.873,808.629C207.885,807.874 207.808,807.328 207.643,806.992C207.478,806.656 207.183,806.487 206.758,806.487C206.321,806.487 206.023,806.641 205.864,806.948C205.705,807.254 205.619,807.815 205.607,808.629L207.873,808.629Z" style="fill:white;fill-rule:nonzero;"/>
    </g>
    <g transform="matrix(2.30084,0,0,-2.32461,51.6291,93.8107)">
        <path d="M2.016,-0.001C4.26,27.158 50.794,23.929 60.93,14.706C51.849,33.801 29.229,42.987 9.119,35.341C2.009,27.993 -0.001,9.533 2.016,-0.001Z" style="fill:rgb(255,235,0);"/>
    </g>
    <g transform="matrix(2.31963,0,0,-2.30872,0.623702,154.538)">
        <path d="M42.004,2.101C14.828,7.883 20.252,49.248 28.919,61.002C9.258,52.1 -0.004,29.307 7.577,9.237C14.642,1.495 32.492,0.039 42.004,2.101Z" style="fill:white;"/>
    </g>
    <g transform="matrix(2.29822,0,0,-2.31208,111.672,185.827)">
        <path d="M0.007,58.884C26.283,57.337 26.263,14.343 14.692,0.075C34.426,8.997 43.953,31.961 35.904,52.214C28.001,60.282 8.337,60.989 0.007,58.884Z" style="fill:white;"/>
    </g>
    <g transform="matrix(2.32778,0,0,-2.33576,20.4782,205.888)">
        <path d="M58.46,43.003C59.975,32.408 59.424,15.781 51.281,7.666C31.227,0.091 8.76,9.518 -0.005,28.783C11.492,17.984 56.087,16.825 58.46,43.003Z" style="fill:rgb(255,235,0);"/>
    </g>
</svg>
