<?xml version="1.0" encoding="UTF-8" standalone="no"?>
<!DOCTYPE svg PUBLIC "-//W3C//DTD SVG 1.1//EN" "http://www.w3.org/Graphics/SVG/1.1/DTD/svg11.dtd">
<svg width="100%" height="100%" viewBox="0 0 2959 2959" version="1.1" xmlns="http://www.w3.org/2000/svg" xmlns:xlink="http://www.w3.org/1999/xlink" xml:space="preserve" xmlns:serif="http://www.serif.com/" style="fill-rule:evenodd;clip-rule:evenodd;stroke-linejoin:round;stroke-miterlimit:2;">
    <g transform="matrix(4.16667,0,0,4.38075,0,-0.190072)">
        <path d="M377.239,158.835C614.8,177.295 586.562,560.022 505.88,643.382C672.91,568.703 753.259,382.653 686.379,217.255C622.106,158.775 460.635,142.25 377.239,158.835Z" style="fill:rgb(11,174,74);"/>
        <path d="M166.996,308.223C217.224,82.882 576.577,127.854 678.687,199.723C601.347,36.694 403.341,-40.099 228.994,22.76C161.735,81.341 149.082,229.355 166.996,308.223Z" style="fill:rgb(76,41,135);"/>
        <path d="M543.297,356.946C529.847,572.809 155.791,572.654 31.666,477.582C109.287,639.707 309.068,717.978 485.277,651.848C555.458,586.922 561.607,425.376 543.297,356.946Z" style="fill:rgb(76,41,135);"/>
        <path d="M333.488,517.343C103.406,497.604 113.595,126.531 208.508,30.858C39.185,103.791 -43.665,290.744 22.907,457.61C94.235,525.371 240.366,529.944 333.488,517.343Z" style="fill:rgb(11,174,74);"/>
    </g>
</svg>
