<?xml version="1.0" encoding="UTF-8" standalone="no"?>
<!DOCTYPE svg PUBLIC "-//W3C//DTD SVG 1.1//EN" "http://www.w3.org/Graphics/SVG/1.1/DTD/svg11.dtd">
<svg width="100%" height="100%" viewBox="0 0 1955 1955" version="1.1" xmlns="http://www.w3.org/2000/svg" xmlns:xlink="http://www.w3.org/1999/xlink" xml:space="preserve" xmlns:serif="http://www.serif.com/" style="fill-rule:evenodd;clip-rule:evenodd;stroke-linejoin:round;stroke-miterlimit:2;">
    <g transform="matrix(4.16667,0,0,4.16667,0,0)">
        <path d="M358.864,249.173C346.038,405.967 80.134,387.33 22.218,334.078C74.102,444.321 203.363,497.353 318.275,453.21C358.905,410.789 370.386,304.216 358.864,249.173Z" style="fill:white;"/>
        <path d="M353.552,300.954C348.803,309.63 343.06,317.526 336.478,324.686C314.052,349.076 282.005,364.61 246.563,373.247C211.77,381.726 173.652,383.585 138.309,380.695C104.201,377.906 72.361,370.604 48.192,360.473C73.764,398.162 109.78,426.449 150.608,442.878C200.889,463.11 258.454,465.381 312.793,445.119C329.194,427.008 340.434,396.766 346.917,364.173C351.112,343.085 353.278,321.174 353.552,300.954ZM358.864,249.172C346.039,405.968 80.134,387.329 22.218,334.078C74.103,444.32 203.363,497.353 318.275,453.21C358.905,410.789 370.386,304.215 358.864,249.172Z" style="fill:rgb(237,28,36);"/>
        <path d="M255.074,110.407C411.632,143.559 380.388,380.739 330.456,448.134C443.722,397.088 497.076,266.4 453.403,151.328C412.703,106.935 309.868,98.584 255.074,110.407Z" style="fill:rgb(237,28,36);"/>
        <path d="M221.224,358.774C71.25,349.896 71.358,103.012 137.41,21.087C24.772,72.318 -29.607,204.177 16.336,320.479C61.445,366.8 173.68,370.859 221.224,358.774Z" style="fill:rgb(237,28,36);"/>
        <path d="M109.785,220.296C123.5,68.437 381.307,75.162 447.778,137.807C397.105,26.05 267.218,-28.633 151.286,15.306C104.209,62.383 101.032,158.833 109.785,220.296Z" style="fill:white;"/>
        <path d="M115.479,168.914C120.517,159.847 126.644,151.601 133.679,144.133C156.419,120.005 188.546,104.264 224.013,95.431C258.825,86.762 297.026,84.739 332.647,87.954C365.828,90.95 396.95,98.576 421.281,109.697C396.085,71.992 360.456,43.529 319.939,26.789C269.522,5.959 211.529,3.27 156.656,23.475C138.497,42.427 127.515,69.811 121.509,99.481C116.907,122.213 115.226,146.227 115.479,168.914ZM109.785,220.296C123.5,68.437 381.306,75.163 447.776,137.807C397.106,26.05 267.219,-28.633 151.286,15.307C104.208,62.383 101.031,158.833 109.785,220.296Z" style="fill:rgb(237,28,36);"/>
    </g>
</svg>
