<?xml version="1.0" encoding="UTF-8" standalone="no"?>
<!DOCTYPE svg PUBLIC "-//W3C//DTD SVG 1.1//EN" "http://www.w3.org/Graphics/SVG/1.1/DTD/svg11.dtd">
<svg width="100%" height="100%" viewBox="0 0 128 128" version="1.1" xmlns="http://www.w3.org/2000/svg" xmlns:xlink="http://www.w3.org/1999/xlink" xml:space="preserve" xmlns:serif="http://www.serif.com/" style="fill-rule:evenodd;clip-rule:evenodd;stroke-linejoin:round;stroke-miterlimit:2;">
    <g transform="matrix(0.973929,0,0,0.973562,1.66854,1.692)">
        <g transform="matrix(1.02677,0,0,1.02716,-1.7132,-1.73795)">
            <circle cx="64" cy="64" r="64" style="fill:url(#_Linear1);"/>
        </g>
        <path d="M28.97,63.324C47.627,55.196 60.068,49.837 66.293,47.248C84.067,39.855 87.76,38.571 90.167,38.528C90.697,38.519 91.88,38.65 92.647,39.273C93.295,39.798 93.473,40.508 93.558,41.006C93.643,41.504 93.749,42.639 93.665,43.525C92.702,53.645 88.534,78.203 86.414,89.538C85.517,94.334 83.751,95.942 82.04,96.099C78.324,96.441 75.502,93.643 71.902,91.284C66.269,87.591 63.087,85.293 57.619,81.69C51.3,77.526 55.397,75.237 58.998,71.497C59.94,70.518 76.316,55.623 76.632,54.272C76.672,54.103 76.709,53.473 76.335,53.141C75.96,52.808 75.408,52.922 75.01,53.012C74.445,53.14 65.446,59.088 48.014,70.855C45.46,72.609 43.146,73.464 41.073,73.419C38.788,73.37 34.393,72.127 31.125,71.065C27.117,69.762 23.931,69.073 24.209,66.86C24.353,65.708 25.94,64.529 28.97,63.324Z" style="fill:white;fill-rule:nonzero;"/>
    </g>
    <defs>
        <linearGradient id="_Linear1" x1="0" y1="0" x2="1" y2="0" gradientUnits="userSpaceOnUse" gradientTransform="matrix(7.77958e-15,127.05,-127.05,7.77958e-15,64,0)"><stop offset="0" style="stop-color:rgb(42,171,238);stop-opacity:1"/><stop offset="1" style="stop-color:rgb(34,158,217);stop-opacity:1"/></linearGradient>
    </defs>
</svg>
