<?xml version="1.0" encoding="UTF-8" standalone="no"?>
<!DOCTYPE svg PUBLIC "-//W3C//DTD SVG 1.1//EN" "http://www.w3.org/Graphics/SVG/1.1/DTD/svg11.dtd">
<svg width="100%" height="100%" viewBox="0 0 150 150" version="1.1" xmlns="http://www.w3.org/2000/svg" xmlns:xlink="http://www.w3.org/1999/xlink" xml:space="preserve" xmlns:serif="http://www.serif.com/" style="fill-rule:evenodd;clip-rule:evenodd;stroke-linejoin:round;stroke-miterlimit:2;">
    <g transform="matrix(1,0,0,1,10.5358,2.155)">
        <path d="M95.551,52.591C104.958,59.312 116.482,63.267 128.928,63.267L128.928,39.328C126.573,39.329 124.223,39.083 121.919,38.595L121.919,57.438C109.473,57.438 97.951,53.484 88.541,46.763L88.541,95.615C88.541,120.053 68.72,139.862 44.271,139.862C35.149,139.862 26.67,137.106 19.626,132.378C27.665,140.594 38.876,145.69 51.279,145.69C75.73,145.69 95.552,125.881 95.552,101.442L95.552,52.591L95.551,52.591ZM104.198,28.44C99.39,23.191 96.234,16.407 95.551,8.907L95.551,5.828L88.908,5.828C90.581,15.36 96.284,23.504 104.198,28.44ZM35.091,113.625C32.404,110.105 30.953,105.799 30.959,101.372C30.959,90.195 40.026,81.132 51.21,81.132C53.295,81.132 55.367,81.451 57.353,82.081L57.353,57.607C55.032,57.289 52.689,57.154 50.347,57.204L50.347,76.253C48.359,75.623 46.286,75.303 44.201,75.305C33.016,75.305 23.95,84.366 23.95,95.545C23.951,103.449 28.482,110.292 35.091,113.625Z" style="fill:rgb(255,0,79);fill-rule:nonzero;"/>
        <path d="M88.542,46.763C97.951,53.483 109.474,57.438 121.919,57.438L121.919,38.594C114.972,37.116 108.822,33.487 104.198,28.44C96.283,23.504 90.581,15.359 88.908,5.827L71.461,5.827L71.461,101.441C71.421,112.587 62.37,121.613 51.209,121.613C44.632,121.613 38.789,118.479 35.089,113.625C28.481,110.292 23.949,103.448 23.949,95.545C23.949,84.368 33.015,75.305 44.2,75.305C46.343,75.305 48.408,75.639 50.346,76.253L50.346,57.204C26.326,57.7 7.009,77.316 7.009,101.441C7.009,113.484 11.819,124.402 19.627,132.379C26.67,137.106 35.149,139.863 44.272,139.863C68.721,139.863 88.542,120.052 88.542,95.615L88.542,46.763L88.542,46.763Z" style="fill-rule:nonzero;"/>
        <path d="M121.919,38.594L121.919,33.5C115.655,33.509 109.513,31.755 104.198,28.44C108.903,33.588 115.099,37.138 121.919,38.594ZM88.909,5.828C88.749,4.916 88.627,3.999 88.542,3.079L88.542,0L64.451,0L64.451,95.614C64.412,106.759 55.362,115.785 44.2,115.785C40.923,115.785 37.829,115.007 35.089,113.626C38.789,118.479 44.633,121.612 51.21,121.612C62.37,121.612 71.422,112.588 71.461,101.441L71.461,5.828L88.909,5.828ZM50.347,57.204L50.347,51.78C48.334,51.505 46.305,51.367 44.273,51.368C19.821,51.368 0,71.178 0,95.614C0,110.934 7.79,124.436 19.628,132.378C11.82,124.401 7.01,113.483 7.01,101.441C7.01,77.316 26.327,57.7 50.347,57.204Z" style="fill:rgb(0,242,234);fill-rule:nonzero;"/>
    </g>
</svg>
